<svg width="182" height="203" viewBox="0 0 182 203" fill="none" xmlns="http://www.w3.org/2000/svg">
<path d="M58.5 73.5V65H50V73.5H58.5ZM76 73.5L84.1996 71.2601L82.4895 65H76V73.5ZM104 176L95.8004 178.24L112.202 178.23L104 176ZM149.5 73H158V64.5H149.5V73ZM132 73V64.5H125.502L123.798 70.7702L132 73ZM58.5 82H76V65H58.5V82ZM67.8004 75.7399L95.8004 178.24L112.2 173.76L84.1996 71.2601L67.8004 75.7399ZM50 73.5V182H67V73.5H50ZM149.5 64.5H132V81.5H149.5V64.5ZM123.798 70.7702L95.7977 173.77L112.202 178.23L140.202 75.2298L123.798 70.7702ZM141 73V180.587H158V73H141ZM141 180.587V181.5H158V180.587H141ZM101.5 185.5C55.1081 185.5 17.5 147.892 17.5 101.5H0.5C0.5 157.281 45.7192 202.5 101.5 202.5V185.5ZM17.5 101.5C17.5 55.1081 55.1081 17.5 101.5 17.5V0.5C45.7192 0.5 0.5 45.7192 0.5 101.5H17.5ZM167.665 153.258C161.42 161.229 153.766 168.043 145.083 173.325L153.917 187.849C164.355 181.501 173.547 173.315 181.047 163.742L167.665 153.258ZM145.083 173.325C132.383 181.049 117.474 185.5 101.5 185.5V202.5C120.677 202.5 138.63 197.147 153.917 187.849L145.083 173.325ZM101.5 17.5C126.45 17.5 148.851 28.367 164.248 45.6535L176.943 34.3465C158.456 13.5917 131.501 0.5 101.5 0.5V17.5Z" fill="#201F1F"/>
</svg>
